<?xml version="1.0" encoding="utf-8"?>
<!-- Generator: Adobe Illustrator 17.0.0, SVG Export Plug-In . SVG Version: 6.00 Build 0)  -->
<!DOCTYPE svg PUBLIC "-//W3C//DTD SVG 1.1//EN" "http://www.w3.org/Graphics/SVG/1.1/DTD/svg11.dtd">
<svg version="1.1" id="Layer_1" xmlns="http://www.w3.org/2000/svg" xmlns:xlink="http://www.w3.org/1999/xlink" x="0px" y="0px"
	 width="166.266px" height="40.197px" viewBox="0 0 166.266 40.197" enable-background="new 0 0 166.266 40.197"
	 xml:space="preserve">
<g>
	<g>
		<g>
			<polyline fill-rule="evenodd" clip-rule="evenodd" fill="#5E0C16" points="161.622,4.848 7.321,4.848 7.218,8.565 3.725,8.795 
				3.725,36.485 7.68,36.254 7.471,40.197 161.622,40.197 161.739,35.769 166.266,35.663 166.266,8.919 161.622,8.814 
				161.622,4.848 			"/>
			<polyline fill-rule="evenodd" clip-rule="evenodd" fill="#EE2324" points="157.897,0 3.595,0 3.493,3.717 0,3.947 0,31.637 
				3.954,31.406 3.745,35.349 157.897,35.349 158.013,30.92 162.541,30.815 162.541,4.071 157.897,3.965 157.897,0 			"/>
		</g>
		
			<polyline opacity="0.6" fill="none" stroke="#FFFFFF" stroke-width="2.27" stroke-linecap="square" stroke-miterlimit="10" points="
			150.582,3.185 154.051,3.185 154.051,4.087 154.051,7.262 158.785,7.262 158.785,21.657 		"/>
	</g>
	
		<line opacity="0.6" fill="none" stroke="#FFFFFF" stroke-width="2.3127" stroke-linecap="square" stroke-miterlimit="10" x1="158.785" y1="26.16" x2="158.785" y2="27.189"/>
</g>
</svg>
