<?xml version="1.0" encoding="utf-8"?>
<!-- Generator: Adobe Illustrator 17.0.0, SVG Export Plug-In . SVG Version: 6.00 Build 0)  -->
<!DOCTYPE svg PUBLIC "-//W3C//DTD SVG 1.1//EN" "http://www.w3.org/Graphics/SVG/1.1/DTD/svg11.dtd">
<svg version="1.1" id="Layer_1" xmlns="http://www.w3.org/2000/svg" xmlns:xlink="http://www.w3.org/1999/xlink" x="0px" y="0px"
	 width="19.356px" height="19.356px" viewBox="0 0 19.356 19.356" enable-background="new 0 0 19.356 19.356" xml:space="preserve">
<g>
	<g>
		<g>
			<polyline fill-rule="evenodd" clip-rule="evenodd" fill="#5E0C16" points="-171.66,-60.918 -325.962,-60.918 -326.064,-57.201 
				-329.557,-56.97 -329.557,-29.281 -325.603,-29.512 -325.812,-25.568 -171.66,-25.568 -171.544,-29.997 -167.016,-30.102 
				-167.016,-56.847 -171.66,-56.952 -171.66,-60.918 			"/>
			<polyline fill-rule="evenodd" clip-rule="evenodd" fill="#EE2324" points="-175.386,-65.766 -329.687,-65.766 -329.79,-62.049 
				-333.282,-61.818 -333.282,-34.129 -329.328,-34.36 -329.537,-30.416 -175.386,-30.416 -175.269,-34.845 -170.741,-34.951 
				-170.741,-61.695 -175.386,-61.8 -175.386,-65.766 			"/>
		</g>
		
			<polyline opacity="0.6" fill="none" stroke="#FFFFFF" stroke-width="2.27" stroke-linecap="square" stroke-miterlimit="10" points="
			-182.701,-62.581 -179.231,-62.581 -179.231,-61.679 -179.231,-58.504 -174.498,-58.504 -174.498,-44.109 		"/>
	</g>
	
		<line opacity="0.6" fill="none" stroke="#FFFFFF" stroke-width="2.3127" stroke-linecap="square" stroke-miterlimit="10" x1="-174.498" y1="-39.606" x2="-174.498" y2="-38.576"/>
</g>
<g>
	<g id="XMLID_2_">
		<g>
			<rect x="16.589" y="11.061" width="2.767" height="2.764"/>
			<rect x="16.589" y="8.295" width="2.767" height="2.767"/>
			<rect x="16.589" y="5.531" width="2.767" height="2.764"/>
			<rect x="13.825" y="13.825" width="2.764" height="2.764"/>
			<rect x="13.825" y="11.061" fill="#F26822" width="2.764" height="2.764"/>
			<rect x="13.825" y="8.295" fill="#F26822" width="2.764" height="2.767"/>
			<rect x="13.825" y="5.531" fill="#F26822" width="2.764" height="2.764"/>
			<rect x="13.825" y="2.764" width="2.764" height="2.767"/>
			<rect x="11.058" y="16.589" width="2.767" height="2.767"/>
			<rect x="11.058" y="13.825" fill="#F26822" width="2.767" height="2.764"/>
			<rect x="11.058" y="11.061" fill="#FFC60B" width="2.767" height="2.764"/>
			<rect x="11.058" y="8.295" fill="#FFC60B" width="2.767" height="2.767"/>
			<rect x="11.058" y="5.531" fill="#FFC60B" width="2.767" height="2.764"/>
			<rect x="11.058" y="2.764" fill="#F26822" width="2.767" height="2.767"/>
			<rect x="11.058" y="0" width="2.767" height="2.764"/>
			<rect x="8.295" y="16.589" width="2.764" height="2.767"/>
			<rect x="8.295" y="13.825" fill="#FFC60B" width="2.764" height="2.764"/>
			<rect x="8.295" y="11.061" fill="#FFF200" width="2.764" height="2.764"/>
			<rect x="8.295" y="8.295" fill="#FFF200" width="2.764" height="2.767"/>
			<rect x="8.295" y="5.531" fill="#FFF200" width="2.764" height="2.764"/>
			<rect x="8.295" y="2.764" fill="#FFC60B" width="2.764" height="2.767"/>
			<rect x="8.295" y="0" width="2.764" height="2.764"/>
			<rect x="5.531" y="16.589" width="2.764" height="2.767"/>
			<rect x="5.531" y="13.825" fill="#FFF200" width="2.764" height="2.764"/>
			<rect x="5.531" y="11.061" fill="#FFF200" width="2.764" height="2.764"/>
			<rect x="5.531" y="8.295" fill="#FFF200" width="2.764" height="2.767"/>
			<rect x="5.531" y="5.531" fill="#FFF200" width="2.764" height="2.764"/>
			<rect x="5.531" y="2.764" fill="#FFF200" width="2.764" height="2.767"/>
			<rect x="5.531" y="0" width="2.764" height="2.764"/>
			<rect x="2.764" y="13.825" width="2.767" height="2.764"/>
			<rect x="2.764" y="11.061" fill="#FEED73" width="2.767" height="2.764"/>
			<rect x="2.764" y="8.295" fill="#FEED73" width="2.767" height="2.767"/>
			<rect x="2.764" y="5.531" fill="#FEED73" width="2.767" height="2.764"/>
			<rect x="2.764" y="2.764" width="2.767" height="2.767"/>
			<rect x="0" y="11.061" width="2.764" height="2.764"/>
			<rect x="0" y="8.295" width="2.764" height="2.767"/>
			<rect x="0" y="5.531" width="2.764" height="2.764"/>
		</g>
		<g>
		</g>
	</g>
</g>
</svg>
