<?xml version="1.0" encoding="utf-8"?>
<!-- Generator: Adobe Illustrator 17.0.0, SVG Export Plug-In . SVG Version: 6.00 Build 0)  -->
<!DOCTYPE svg PUBLIC "-//W3C//DTD SVG 1.1//EN" "http://www.w3.org/Graphics/SVG/1.1/DTD/svg11.dtd">
<svg version="1.1" id="Layer_1" xmlns="http://www.w3.org/2000/svg" xmlns:xlink="http://www.w3.org/1999/xlink" x="0px" y="0px"
	 width="180.556px" height="321.205px" viewBox="0 0 180.556 321.205" enable-background="new 0 0 180.556 321.205"
	 xml:space="preserve">
<rect x="0" y="0" fill="#0D1A2D" width="180.556" height="321.205"/>
<path fill="#0D1A2D" d="M173.743,0H6.813C3.05,0,0,4.459,0,9.96v301.285c0,5.501,3.05,9.96,6.813,9.96h166.929
	c3.763,0,6.813-4.459,6.813-9.96V9.96C180.556,4.459,177.506,0,173.743,0z"/>
<circle fill="#FFFFFF" cx="27.029" cy="29.172" r="1.065"/>
<circle fill="#FFFFFF" cx="28.094" cy="64.966" r="1.065"/>
<circle fill="#FFFFFF" cx="113.288" cy="59.145" r="1.065"/>
<circle fill="#FFFFFF" cx="42.186" cy="56.026" r="1.065"/>
<circle fill="#FFFFFF" cx="90.278" cy="114.056" r="1.065"/>
<circle fill="#FFFFFF" cx="77.841" cy="82.304" r="1.331"/>
<circle fill="#FFFFFF" cx="33.337" cy="157.075" r="1.065"/>
<circle fill="#FFFFFF" cx="46.786" cy="146.982" r="1.065"/>
<circle fill="#FFFFFF" cx="126.532" cy="120.616" r="1.664"/>
<circle fill="#FFFFFF" cx="155.786" cy="166.982" r="1.065"/>
<circle fill="#FFFFFF" cx="43.251" cy="233.848" r="1.065"/>
<circle fill="#FFFFFF" cx="148.166" cy="35.248" r="1.065"/>
<circle fill="#FFFFFF" cx="143.415" cy="223.933" r="1.065"/>
<circle fill="#FFFFFF" cx="110.559" cy="178.157" r="1.664"/>
<circle fill="#FFFFFF" cx="110.559" cy="298.087" r="1.664"/>
<circle fill="#FFFFFF" cx="67.715" cy="253.161" r="1.664"/>
<circle fill="#FFFFFF" cx="19.254" cy="286.57" r="1.065"/>
<circle fill="#FFFFFF" cx="100.422" cy="122.28" r="1.065"/>
<circle fill="#FFFFFF" cx="141.285" cy="280.624" r="1.065"/>
<circle fill="#FFFFFF" cx="124.868" cy="277.608" r="1.065"/>
<circle fill="#FFFFFF" cx="89.213" cy="204.993" r="1.065"/>
<circle fill="#FFFFFF" cx="18.189" cy="203.928" r="1.065"/>
</svg>
