<?xml version="1.0" encoding="utf-8"?>
<!-- Generator: Adobe Illustrator 17.0.0, SVG Export Plug-In . SVG Version: 6.00 Build 0)  -->
<!DOCTYPE svg PUBLIC "-//W3C//DTD SVG 1.1//EN" "http://www.w3.org/Graphics/SVG/1.1/DTD/svg11.dtd">
<svg version="1.1" id="Layer_1" xmlns="http://www.w3.org/2000/svg" xmlns:xlink="http://www.w3.org/1999/xlink" x="0px" y="0px"
	 width="112.83px" height="54.474px" viewBox="0 0 112.83 54.474" enable-background="new 0 0 112.83 54.474" xml:space="preserve">
<g>
	<g>
		<path stroke="#000000" stroke-width="1.9625" stroke-miterlimit="10" d="M9.534,10.868v5.175H7.861V3.968h1.673v5.175h5.019V3.968
			h1.673v12.074h-1.673v-5.175H9.534z"/>
		<path stroke="#000000" stroke-width="1.9625" stroke-miterlimit="10" d="M19.573,4.83V3.968h5.019V4.83h0.837v0.862h0.837v8.624
			h-0.837v0.862h-0.837v0.862h-5.019V15.18h-0.837v-0.862H17.9V5.693h0.837V4.83H19.573z M23.756,5.693H20.41v0.862h-0.837v6.9
			h0.837v0.862h3.346v-0.862h0.837v-6.9h-0.837V5.693z"/>
		<path stroke="#000000" stroke-width="1.9625" stroke-miterlimit="10" d="M27.939,3.968h1.673v9.487h1.673V9.143h1.673v4.312h1.673
			V3.968h1.673v10.349h-0.837v0.862h-0.837v0.862h-1.673V15.18h-1.673v0.862h-1.673V15.18h-0.837v-0.862h-0.837V3.968z"/>
		<path stroke="#000000" stroke-width="1.9625" stroke-miterlimit="10" d="M49.69,16.042h-1.673V3.968h1.673v1.725h0.837v0.862
			h0.837v0.862h1.673V6.555h0.837V5.693h0.837V3.968h1.673v12.074h-1.673V8.28h-0.837v0.862h-0.837v1.725h-1.673V9.143h-0.837V8.28
			H49.69V16.042z"/>
		<path stroke="#000000" stroke-width="1.9625" stroke-miterlimit="10" d="M58.892,14.317h-0.837V3.968h1.673v9.487h0.837v0.862
			h3.346v-0.862h0.837V3.968h1.673v10.349h-0.837v0.862h-0.837v0.862h-5.019V15.18h-0.837V14.317z"/>
		<path stroke="#000000" stroke-width="1.9625" stroke-miterlimit="10" d="M70.604,14.317h3.346v-0.862h0.837v-0.862h1.673v1.725
			h-0.837v0.862h-0.837v0.862h-5.019V15.18h-0.837v-0.862h-0.837V5.693h0.837V4.83h0.837V3.968h5.019V4.83h0.837v0.862h0.837v1.725
			h-1.673V6.555H73.95V5.693h-3.346v0.862h-0.837v6.9h0.837V14.317z"/>
		<path stroke="#000000" stroke-width="1.9625" stroke-miterlimit="10" d="M79.806,10.868v5.175h-1.673V3.968h1.673v5.175h5.019
			V3.968h1.673v12.074h-1.673v-5.175H79.806z"/>
		<path stroke="#000000" stroke-width="1.9625" stroke-miterlimit="10" d="M99.048,14.317h-0.837V3.968h1.673v9.487h0.837v0.862
			h3.346v-0.862h0.837V3.968h1.673v10.349h-0.837v0.862h-0.837v0.862h-5.019V15.18h-0.837V14.317z"/>
		<path stroke="#000000" stroke-width="1.9625" stroke-miterlimit="10" d="M4.515,33.313H2.842v-8.624h0.837v-0.862h0.837v-0.862
			h0.837v-0.862h0.837v-0.862h1.673v0.862h0.837v0.862h0.837v0.862h0.837v0.862h0.837v8.624H9.534v-3.45H4.515V33.313z
			 M4.515,28.138h5.019v-2.587H8.698v-0.862H7.861v-0.862H6.188v0.862H5.352v0.862H4.515V28.138z"/>
		<path stroke="#000000" stroke-width="1.9625" stroke-miterlimit="10" d="M12.881,33.313V21.238h6.693v0.862h0.837v0.862h0.837
			v8.624H20.41v0.862h-0.837v0.862H12.881z M14.554,22.963v8.624h4.183v-0.862h0.837v-6.9h-0.837v-0.862H14.554z"/>
		<path stroke="#000000" stroke-width="1.9625" stroke-miterlimit="10" d="M22.92,33.313V21.238h6.693v0.862h0.837v0.862h0.837
			v8.624h-0.837v0.862h-0.837v0.862H22.92z M24.593,22.963v8.624h4.183v-0.862h0.837v-6.9h-0.837v-0.862H24.593z"/>
		<path stroke="#000000" stroke-width="1.9625" stroke-miterlimit="10" d="M34.632,33.313v-1.725h1.673v-8.624h-1.673v-1.725h5.019
			v1.725h-1.673v8.624h1.673v1.725H34.632z"/>
		<path stroke="#000000" stroke-width="1.9625" stroke-miterlimit="10" d="M45.507,31.588h3.346v-0.862h0.837v-0.862h1.673v1.725
			h-0.837v0.862H49.69v0.862H44.67V32.45h-0.837v-0.862h-0.837v-8.624h0.837v-0.862h0.837v-0.862h5.019v0.862h0.837v0.862h0.837
			v1.725H49.69v-0.862h-0.837v-0.862h-3.346v0.862H44.67v6.9h0.837V31.588z"/>
		<path stroke="#000000" stroke-width="1.9625" stroke-miterlimit="10" d="M56.382,22.963h-3.346v-1.725h8.366v1.725h-3.346v10.349
			h-1.673V22.963z"/>
		<path stroke="#000000" stroke-width="1.9625" stroke-miterlimit="10" d="M71.441,21.238v1.725h-6.693v3.45h5.019v1.725h-5.019
			v3.45h6.693v1.725h-8.366V21.238H71.441z"/>
		<path stroke="#000000" stroke-width="1.9625" stroke-miterlimit="10" d="M73.114,33.313V21.238h6.693v0.862h0.837v0.862h0.837
			v8.624h-0.837v0.862h-0.837v0.862H73.114z M74.787,22.963v8.624h4.183v-0.862h0.837v-6.9H78.97v-0.862H74.787z"/>
		<path stroke="#000000" stroke-width="1.9625" stroke-miterlimit="10" d="M96.538,22.963h-3.346v-1.725h8.366v1.725h-3.346v10.349
			h-1.673V22.963z"/>
		<path stroke="#000000" stroke-width="1.9625" stroke-miterlimit="10" d="M104.904,22.101v-0.862h5.019v0.862h0.837v0.862h0.837
			v8.624h-0.837v0.862h-0.837v0.862h-5.019V32.45h-0.837v-0.862h-0.837v-8.624h0.837v-0.862H104.904z M109.086,22.963h-3.346v0.862
			h-0.837v6.9h0.837v0.862h3.346v-0.862h0.837v-6.9h-0.837V22.963z"/>
		<path stroke="#000000" stroke-width="1.9625" stroke-miterlimit="10" d="M35.468,41.215h0.837v1.725h-1.673v-0.862h-0.837v-0.862
			h-3.346v0.862h-0.837v6.9h0.837v0.862h3.346v-0.862h0.837V46.39h-2.51v-1.725h4.183v5.175h-0.837v0.862h-0.837v0.862h-5.019
			v-0.862h-0.837V49.84h-0.837v-8.624h0.837v-0.862h0.837V39.49h5.019v0.862h0.837V41.215z"/>
		<path stroke="#000000" stroke-width="1.9625" stroke-miterlimit="10" d="M39.651,51.564h-1.673V42.94h0.837v-0.862h0.837v-0.862
			h0.837v-0.862h0.837V39.49h1.673v0.862h0.837v0.862h0.837v0.862h0.837v0.862h0.837v8.624H44.67v-3.45h-5.019V51.564z
			 M39.651,46.39h5.019v-2.587h-0.837V42.94h-0.837v-0.862h-1.673v0.862h-0.837v0.862h-0.837V46.39z"/>
		<path stroke="#000000" stroke-width="1.9625" stroke-miterlimit="10" d="M49.69,51.564h-1.673V39.49h1.673v1.725h0.837v0.862
			h0.837v0.862h1.673v-0.862h0.837v-0.862h0.837V39.49h1.673v12.074h-1.673v-7.762h-0.837v0.862h-0.837v1.725h-1.673v-1.725h-0.837
			v-0.862H49.69V51.564z"/>
		<path stroke="#000000" stroke-width="1.9625" stroke-miterlimit="10" d="M66.421,39.49v1.725h-6.693v3.45h5.019v1.725h-5.019v3.45
			h6.693v1.725h-8.366V39.49H66.421z"/>
		<path stroke="#000000" stroke-width="1.9625" stroke-miterlimit="10" d="M75.624,41.215h0.837v1.725h-1.673v-0.862H73.95v-0.862
			h-3.346v0.862h-0.837v1.725h0.837v0.862h4.183v0.862h0.837v0.862h0.837v3.45h-0.837v0.862h-0.837v0.862h-5.019v-0.862h-0.837
			V49.84h-0.837v-1.725h1.673v0.862h0.837v0.862h3.346v-0.862h0.837v-1.725H73.95V46.39h-4.183v-0.862h-0.837v-0.862h-0.837v-3.45
			h0.837v-0.862h0.837V39.49h5.019v0.862h0.837V41.215z"/>
		<path stroke="#000000" stroke-width="1.9625" stroke-miterlimit="10" d="M83.153,45.527v-0.862h0.837v-0.862h0.837v-1.725h-0.837
			v-0.862h-3.346v0.862h-0.837v0.862h-1.673v-1.725h0.837v-0.862h0.837V39.49h5.019v0.862h0.837v0.862h0.837v3.45h-0.837v0.862
			h-0.837v0.862h-0.837v0.862h-0.837v0.862H81.48V46.39h0.837v-0.862H83.153z M83.153,49.84v1.725H81.48V49.84H83.153z"/>
	</g>
	<g>
		<path fill="#FFFFFF" stroke="#FFFFFF" stroke-width="0.2453" stroke-miterlimit="10" d="M7.572,8.905v5.175H5.899V2.006h1.673
			V7.18h5.019V2.006h1.673V14.08h-1.673V8.905H7.572z"/>
		<path fill="#FFFFFF" stroke="#FFFFFF" stroke-width="0.2453" stroke-miterlimit="10" d="M17.611,2.868V2.006h5.019v0.862h0.837
			V3.73h0.837v8.624h-0.837v0.862H22.63v0.862h-5.019v-0.862h-0.837v-0.862h-0.837V3.73h0.837V2.868H17.611z M21.794,3.73h-3.346
			v0.862h-0.837v6.9h0.837v0.862h3.346v-0.862h0.837v-6.9h-0.837V3.73z"/>
		<path fill="#FFFFFF" stroke="#FFFFFF" stroke-width="0.2453" stroke-miterlimit="10" d="M25.976,2.006h1.673v9.487h1.673V7.18
			h1.673v4.312h1.673V2.006h1.673v10.349h-0.837v0.862h-0.837v0.862h-1.673v-0.862h-1.673v0.862H27.65v-0.862h-0.837v-0.862h-0.837
			V2.006z"/>
		<path fill="#FFFFFF" stroke="#FFFFFF" stroke-width="0.2453" stroke-miterlimit="10" d="M47.727,14.08h-1.673V2.006h1.673V3.73
			h0.837v0.862H49.4v0.862h1.673V4.593h0.837V3.73h0.837V2.006h1.673V14.08h-1.673V6.318H51.91V7.18h-0.837v1.725H49.4V7.18h-0.837
			V6.318h-0.837V14.08z"/>
		<path fill="#FFFFFF" stroke="#FFFFFF" stroke-width="0.2453" stroke-miterlimit="10" d="M56.93,12.355h-0.837V2.006h1.673v9.487
			h0.837v0.862h3.346v-0.862h0.837V2.006h1.673v10.349h-0.837v0.862h-0.837v0.862h-5.019v-0.862H56.93V12.355z"/>
		<path fill="#FFFFFF" stroke="#FFFFFF" stroke-width="0.2453" stroke-miterlimit="10" d="M68.642,12.355h3.346v-0.862h0.837V10.63
			h1.673v1.725h-0.837v0.862h-0.837v0.862h-5.019v-0.862h-0.837v-0.862h-0.837V3.73h0.837V2.868h0.837V2.006h5.019v0.862h0.837V3.73
			h0.837v1.725h-1.673V4.593h-0.837V3.73h-3.346v0.862h-0.837v6.9h0.837V12.355z"/>
		<path fill="#FFFFFF" stroke="#FFFFFF" stroke-width="0.2453" stroke-miterlimit="10" d="M77.844,8.905v5.175h-1.673V2.006h1.673
			V7.18h5.019V2.006h1.673V14.08h-1.673V8.905H77.844z"/>
		<path fill="#FFFFFF" stroke="#FFFFFF" stroke-width="0.2453" stroke-miterlimit="10" d="M97.085,12.355h-0.837V2.006h1.673v9.487
			h0.837v0.862h3.346v-0.862h0.837V2.006h1.673v10.349h-0.837v0.862h-0.837v0.862h-5.019v-0.862h-0.837V12.355z"/>
		<path fill="#FFFFFF" stroke="#FFFFFF" stroke-width="0.2453" stroke-miterlimit="10" d="M2.552,31.35H0.879v-8.624h0.837v-0.862
			h0.837v-0.862h0.837v-0.862h0.837v-0.862h1.673v0.862h0.837v0.862h0.837v0.862h0.837v0.862h0.837v8.624H7.572V27.9H2.552V31.35z
			 M2.552,26.176h5.019v-2.587H6.735v-0.862H5.899v-0.862H4.226v0.862H3.389v0.862H2.552V26.176z"/>
		<path fill="#FFFFFF" stroke="#FFFFFF" stroke-width="0.2453" stroke-miterlimit="10" d="M10.918,31.35V19.276h6.693v0.862h0.837
			v0.862h0.837v8.624h-0.837v0.862h-0.837v0.862H10.918z M12.591,21.001v8.624h4.183v-0.862h0.837v-6.9h-0.837v-0.862H12.591z"/>
		<path fill="#FFFFFF" stroke="#FFFFFF" stroke-width="0.2453" stroke-miterlimit="10" d="M20.957,31.35V19.276h6.693v0.862h0.837
			v0.862h0.837v8.624h-0.837v0.862H27.65v0.862H20.957z M22.63,21.001v8.624h4.183v-0.862h0.837v-6.9h-0.837v-0.862H22.63z"/>
		<path fill="#FFFFFF" stroke="#FFFFFF" stroke-width="0.2453" stroke-miterlimit="10" d="M32.669,31.35v-1.725h1.673v-8.624h-1.673
			v-1.725h5.019v1.725h-1.673v8.624h1.673v1.725H32.669z"/>
		<path fill="#FFFFFF" stroke="#FFFFFF" stroke-width="0.2453" stroke-miterlimit="10" d="M43.544,29.625h3.346v-0.862h0.837V27.9
			H49.4v1.725h-0.837v0.862h-0.837v0.862h-5.019v-0.862h-0.837v-0.862h-0.837v-8.624h0.837v-0.862h0.837v-0.862h5.019v0.862h0.837
			v0.862H49.4v1.725h-1.673v-0.862h-0.837v-0.862h-3.346v0.862h-0.837v6.9h0.837V29.625z"/>
		<path fill="#FFFFFF" stroke="#FFFFFF" stroke-width="0.2453" stroke-miterlimit="10" d="M54.42,21.001h-3.346v-1.725h8.366v1.725
			h-3.346V31.35H54.42V21.001z"/>
		<path fill="#FFFFFF" stroke="#FFFFFF" stroke-width="0.2453" stroke-miterlimit="10" d="M69.478,19.276v1.725h-6.693v3.45h5.019
			v1.725h-5.019v3.45h6.693v1.725h-8.366V19.276H69.478z"/>
		<path fill="#FFFFFF" stroke="#FFFFFF" stroke-width="0.2453" stroke-miterlimit="10" d="M71.151,31.35V19.276h6.693v0.862h0.837
			v0.862h0.837v8.624H78.68v0.862h-0.837v0.862H71.151z M72.824,21.001v8.624h4.183v-0.862h0.837v-6.9h-0.837v-0.862H72.824z"/>
		<path fill="#FFFFFF" stroke="#FFFFFF" stroke-width="0.2453" stroke-miterlimit="10" d="M94.575,21.001h-3.346v-1.725h8.366v1.725
			h-3.346V31.35h-1.673V21.001z"/>
		<path fill="#FFFFFF" stroke="#FFFFFF" stroke-width="0.2453" stroke-miterlimit="10" d="M102.941,20.138v-0.862h5.019v0.862h0.837
			v0.862h0.837v8.624h-0.837v0.862h-0.837v0.862h-5.019v-0.862h-0.837v-0.862h-0.837v-8.624h0.837v-0.862H102.941z M107.124,21.001
			h-3.346v0.862h-0.837v6.9h0.837v0.862h3.346v-0.862h0.837v-6.9h-0.837V21.001z"/>
		<path fill="#8551A0" stroke="#8551A0" stroke-width="0.2453" stroke-miterlimit="10" d="M33.506,39.253h0.837v1.725h-1.673v-0.862
			h-0.837v-0.862h-3.346v0.862H27.65v6.9h0.837v0.862h3.346v-0.862h0.837v-2.587h-2.51v-1.725h4.183v5.175h-0.837v0.862h-0.837
			v0.862H27.65v-0.862h-0.837v-0.862h-0.837v-8.624h0.837V38.39h0.837v-0.862h5.019v0.862h0.837V39.253z"/>
		<path fill="#405DAA" stroke="#405DAA" stroke-width="0.2453" stroke-miterlimit="10" d="M37.688,49.602h-1.673v-8.624h0.837
			v-0.862h0.837v-0.862h0.837V38.39h0.837v-0.862h1.673v0.862h0.837v0.862h0.837v0.862h0.837v0.862h0.837v8.624h-1.673v-3.45h-5.019
			V49.602z M37.688,44.427h5.019V41.84h-0.837v-0.862h-0.837v-0.862h-1.673v0.862h-0.837v0.862h-0.837V44.427z"/>
		<path fill="#4BB749" stroke="#4BB749" stroke-width="0.2453" stroke-miterlimit="10" d="M47.727,49.602h-1.673V37.528h1.673v1.725
			h0.837v0.862H49.4v0.862h1.673v-0.862h0.837v-0.862h0.837v-1.725h1.673v12.074h-1.673V41.84H51.91v0.862h-0.837v1.725H49.4v-1.725
			h-0.837V41.84h-0.837V49.602z"/>
		<path fill="#FEC20F" stroke="#FEC20F" stroke-width="0.2453" stroke-miterlimit="10" d="M64.459,37.528v1.725h-6.693v3.45h5.019
			v1.725h-5.019v3.45h6.693v1.725h-8.366V37.528H64.459z"/>
		<path fill="#ED1F24" stroke="#ED1F24" stroke-width="0.2453" stroke-miterlimit="10" d="M73.661,39.253h0.837v1.725h-1.673v-0.862
			h-0.837v-0.862h-3.346v0.862h-0.837v1.725h0.837v0.862h4.183v0.862h0.837v0.862h0.837v3.45h-0.837v0.862h-0.837v0.862h-5.019
			v-0.862h-0.837v-0.862h-0.837v-1.725h1.673v0.862h0.837v0.862h3.346v-0.862h0.837V45.29h-0.837v-0.862h-4.183v-0.862h-0.837
			v-0.862h-0.837v-3.45h0.837V38.39h0.837v-0.862h5.019v0.862h0.837V39.253z"/>
		<path fill="#FFFFFF" stroke="#FFFFFF" stroke-width="0.2453" stroke-miterlimit="10" d="M81.19,43.565v-0.862h0.837V41.84h0.837
			v-1.725h-0.837v-0.862H78.68v0.862h-0.837v0.862h-1.673v-1.725h0.837V38.39h0.837v-0.862h5.019v0.862H83.7v0.862h0.837v3.45H83.7
			v0.862h-0.837v0.862h-0.837v0.862H81.19v0.862h-1.673v-1.725h0.837v-0.862H81.19z M81.19,47.877v1.725h-1.673v-1.725H81.19z"/>
	</g>
</g>
</svg>
