<?xml version="1.0" encoding="utf-8"?>
<!-- Generator: Adobe Illustrator 17.0.0, SVG Export Plug-In . SVG Version: 6.00 Build 0)  -->
<!DOCTYPE svg PUBLIC "-//W3C//DTD SVG 1.1//EN" "http://www.w3.org/Graphics/SVG/1.1/DTD/svg11.dtd">
<svg version="1.1" id="Layer_1" xmlns="http://www.w3.org/2000/svg" xmlns:xlink="http://www.w3.org/1999/xlink" x="0px" y="0px"
	 width="129.686px" height="30.881px" viewBox="0 0 129.686 30.881" enable-background="new 0 0 129.686 30.881"
	 xml:space="preserve">
<g>
	<g>
		<g>
			<g>
				<polyline fill-rule="evenodd" clip-rule="evenodd" fill="#5E0C16" points="126.064,3.725 5.71,3.725 5.63,6.58 2.906,6.757 
					2.906,28.029 5.99,27.852 5.827,30.881 126.064,30.881 126.155,27.479 129.686,27.398 129.686,6.852 126.064,6.771 
					126.064,3.725 				"/>
				<polyline fill-rule="evenodd" clip-rule="evenodd" fill="#EE2324" points="123.158,0 2.804,0 2.724,2.855 0,3.032 0,24.304 
					3.084,24.127 2.921,27.156 123.158,27.156 123.249,23.754 126.78,23.673 126.78,3.127 123.158,3.046 123.158,0 				"/>
			</g>
			
				<polyline opacity="0.6" fill="none" stroke="#FFFFFF" stroke-width="1.7572" stroke-linecap="square" stroke-miterlimit="10" points="
				117.452,2.447 120.158,2.447 120.158,3.14 120.158,5.579 123.85,5.579 123.85,16.637 			"/>
		</g>
		
			<line opacity="0.6" fill="none" stroke="#FFFFFF" stroke-width="1.7902" stroke-linecap="square" stroke-miterlimit="10" x1="123.85" y1="20.097" x2="123.85" y2="20.888"/>
	</g>
	<g>
		<path fill="#FFFFFF" stroke="#FFFFFF" stroke-width="0.2519" stroke-miterlimit="10" d="M32.743,11.066h0.595v1.172h-1.19v-0.586
			h-0.595v-0.586h-2.38v0.586h-0.595v4.688h0.595v0.586h2.38v-0.586h0.595v-1.758h-1.785v-1.172h2.975v3.516h-0.595v0.586h-0.595
			v0.586h-3.569v-0.586h-0.595v-0.586h-0.595v-5.859h0.595V10.48h0.595V9.894h3.569v0.586h0.595V11.066z"/>
		<path fill="#FFFFFF" stroke="#FFFFFF" stroke-width="0.2519" stroke-miterlimit="10" d="M40.477,9.894v1.172h-4.759v2.344h3.569
			v1.172h-3.569v2.344h4.759v1.172h-5.949V9.894H40.477z"/>
		<path fill="#FFFFFF" stroke="#FFFFFF" stroke-width="0.2519" stroke-miterlimit="10" d="M44.047,11.066h-2.38V9.894h5.949v1.172
			h-2.38v7.031h-1.19V11.066z"/>
		<path fill="#FFFFFF" stroke="#FFFFFF" stroke-width="0.2519" stroke-miterlimit="10" d="M61.299,11.066h0.595v1.172h-1.19v-0.586
			h-0.595v-0.586h-2.38v0.586h-0.595v1.172h0.595v0.586h2.975v0.586h0.595v0.586h0.595v2.344h-0.595v0.586h-0.595v0.586h-3.569
			v-0.586H56.54v-0.586h-0.595v-1.172h1.19v0.586h0.595v0.586h2.38v-0.586h0.595v-1.172h-0.595v-0.586h-2.975v-0.586H56.54v-0.586
			h-0.595v-2.344h0.595V10.48h0.595V9.894h3.569v0.586h0.595V11.066z"/>
		<path fill="#FFFFFF" stroke="#FFFFFF" stroke-width="0.2519" stroke-miterlimit="10" d="M65.463,11.066h-2.38V9.894h5.949v1.172
			h-2.38v7.031h-1.19V11.066z"/>
		<path fill="#FFFFFF" stroke="#FFFFFF" stroke-width="0.2519" stroke-miterlimit="10" d="M71.412,18.097h-1.19v-5.859h0.595v-0.586
			h0.595v-0.586h0.595V10.48h0.595V9.894h1.19v0.586h0.595v0.586h0.595v0.586h0.595v0.586h0.595v5.859h-1.19v-2.344h-3.569V18.097z
			 M71.412,14.581h3.569v-1.758h-0.595v-0.586h-0.595v-0.586h-1.19v0.586h-0.595v0.586h-0.595V14.581z"/>
		<path fill="#FFFFFF" stroke="#FFFFFF" stroke-width="0.2519" stroke-miterlimit="10" d="M79.146,14.581h-0.595v3.516h-1.19V9.894
			h4.759v0.586h0.595v0.586h0.595v2.344h-0.595v0.586h-0.595v0.586h-1.19v0.586h0.595v0.586h0.595v0.586h0.595v0.586h0.595v1.172
			h-1.19v-0.586h-0.595v-0.586h-0.595v-0.586h-0.595v-0.586h-0.595v-0.586h-0.595V14.581z M78.551,11.066v2.344h2.975v-0.586h0.595
			v-1.172h-0.595v-0.586H78.551z"/>
		<path fill="#FFFFFF" stroke="#FFFFFF" stroke-width="0.2519" stroke-miterlimit="10" d="M86.88,11.066H84.5V9.894h5.949v1.172
			h-2.38v7.031h-1.19V11.066z"/>
		<path fill="#FFFFFF" stroke="#FFFFFF" stroke-width="0.2519" stroke-miterlimit="10" d="M97.588,9.894v1.172h-4.759v2.344h3.569
			v1.172h-3.569v2.344h4.759v1.172h-5.949V9.894H97.588z"/>
		<path fill="#FFFFFF" stroke="#FFFFFF" stroke-width="0.2519" stroke-miterlimit="10" d="M98.778,18.097V9.894h4.759v0.586h0.595
			v0.586h0.595v5.859h-0.595v0.586h-0.595v0.586H98.778z M99.968,11.066v5.859h2.975v-0.586h0.595v-4.688h-0.595v-0.586H99.968z"/>
	</g>
</g>
</svg>
